<?xml version="1.0" encoding="UTF-8"?>
<svg id="Layer_1" data-name="Layer 1" xmlns="http://www.w3.org/2000/svg" version="1.1" viewBox="0 0 380.925 85.039">
  <defs>
    <style>
      .cls-1 {
        fill: #282828;
      }

      .cls-1, .cls-2, .cls-3 {
        stroke-width: 0px;
      }

      .cls-2 {
        fill: red;
      }

      .cls-3 {
        fill: #fff;
      }
    </style>
  </defs>
  <g>
    <path class="cls-2" d="M118.946,13.279c-1.397-5.227-5.514-9.343-10.741-10.74C98.732,0,60.742,0,60.742,0c0,0-37.989,0-47.463,2.539C8.052,3.936,3.936,8.052,2.539,13.279,0,22.753,0,42.52,0,42.52c0,0,0,19.767,2.539,29.241,1.397,5.227,5.514,9.343,10.741,10.74,9.474,2.539,47.463,2.539,47.463,2.539,0,0,37.989,0,47.463-2.539,5.227-1.397,9.343-5.514,10.741-10.74,2.539-9.474,2.539-29.241,2.539-29.241,0,0,0-19.767-2.539-29.241Z"/>
    <polygon class="cls-3" points="48.594 60.742 80.155 42.52 48.594 24.297 48.594 60.742"/>
  </g>
  <g>
    <path class="cls-1" d="M176.336,77.364c-2.404-1.62-4.113-4.14-5.126-7.558-1.014-3.417-1.52-7.963-1.52-13.64v-7.732c0-5.734.578-10.339,1.737-13.814,1.158-3.475,2.968-6.008,5.43-7.602,2.461-1.592,5.691-2.389,9.687-2.389,3.938,0,7.094.811,9.47,2.432,2.374,1.622,4.112,4.156,5.213,7.602,1.1,3.447,1.651,8.036,1.651,13.77v7.732c0,5.677-.536,10.238-1.607,13.683-1.072,3.447-2.81,5.966-5.213,7.558-2.404,1.592-5.662,2.389-9.774,2.389-4.228,0-7.544-.811-9.947-2.432ZM189.801,69.023c.665-1.737.999-4.574.999-8.514v-16.594c0-3.823-.334-6.616-.999-8.384-.666-1.766-1.84-2.65-3.519-2.65-1.622,0-2.766.884-3.431,2.65-.666,1.767-.999,4.561-.999,8.384v16.594c0,3.939.317,6.776.956,8.514.637,1.738,1.794,2.606,3.475,2.606s2.852-.869,3.519-2.606Z"/>
    <path class="cls-1" d="M360.856,56.292v2.693c0,3.418.1,5.981.304,7.689.202,1.709.621,2.954,1.26,3.736.637.782,1.62,1.173,2.954,1.173,1.794,0,3.026-.695,3.692-2.085.665-1.39,1.028-3.706,1.086-6.95l10.339.608c.058.464.087,1.101.087,1.911,0,4.924-1.347,8.601-4.04,11.033-2.693,2.433-6.502,3.649-11.425,3.649-5.907,0-10.049-1.853-12.424-5.56-2.375-3.706-3.562-9.439-3.562-17.201v-9.296c0-7.992,1.231-13.827,3.693-17.506,2.461-3.677,6.675-5.517,12.641-5.517,4.112,0,7.268.754,9.469,2.259,2.201,1.507,3.75,3.852,4.648,7.037.898,3.186,1.347,7.589,1.347,13.206v9.122h-20.069ZM362.376,33.878c-.608.753-1.014,1.984-1.216,3.692-.204,1.709-.304,4.3-.304,7.776v3.823h8.774v-3.823c0-3.417-.116-6.008-.347-7.776-.232-1.766-.651-3.011-1.26-3.735-.608-.724-1.55-1.086-2.824-1.086s-2.215.378-2.824,1.13Z"/>
    <path class="cls-1" d="M147.142,55.295l-13.64-49.259h11.902l4.778,22.328c1.217,5.503,2.114,10.194,2.693,14.074h.348c.405-2.78,1.303-7.441,2.693-13.987l4.952-22.415h11.903l-13.814,49.259v23.632h-11.815v-23.632Z"/>
    <path class="cls-1" d="M241.586,25.672v53.255h-9.383l-1.043-6.516h-.26c-2.55,4.924-6.372,7.384-11.468,7.384-3.533,0-6.14-1.158-7.819-3.475-1.681-2.316-2.519-5.936-2.519-10.86V25.672h11.989v39.095c0,2.375.261,4.07.782,5.082.521,1.014,1.39,1.52,2.606,1.52,1.043,0,2.042-.318,2.997-.956.956-.637,1.664-1.447,2.129-2.432V25.672h11.989Z"/>
    <path class="cls-1" d="M303.082,25.672v53.255h-9.383l-1.043-6.516h-.26c-2.55,4.924-6.372,7.384-11.468,7.384-3.533,0-6.14-1.158-7.819-3.475-1.681-2.316-2.519-5.936-2.519-10.86V25.672h11.989v39.095c0,2.375.261,4.07.782,5.082.521,1.014,1.39,1.52,2.606,1.52,1.043,0,2.042-.318,2.997-.956.956-.637,1.664-1.447,2.129-2.432V25.672h11.989Z"/>
    <path class="cls-1" d="M274.164,15.681h-11.902v63.246h-11.728V15.681h-11.902V6.037h35.532v9.643Z"/>
    <path class="cls-1" d="M342.761,34.185c-.725-3.358-1.898-5.791-3.519-7.297-1.622-1.505-3.852-2.259-6.689-2.259-2.202,0-4.257.623-6.168,1.868-1.911,1.246-3.388,2.882-4.431,4.909h-.088V3.344s-11.553,0-11.553,0v75.583h9.904l1.216-5.039h.261c.926,1.796,2.316,3.214,4.17,4.257,1.853,1.042,3.909,1.563,6.169,1.563,4.053,0,7.037-1.868,8.948-5.603,1.911-3.736,2.867-9.57,2.867-17.506v-8.427c0-5.964-.363-10.627-1.086-13.987ZM331.771,55.908c0,3.881-.16,6.922-.478,9.122-.319,2.202-.855,3.766-1.607,4.692-.753.927-1.767,1.39-3.04,1.39-.986,0-1.898-.231-2.737-.695-.84-.463-1.52-1.158-2.042-2.085v-30.233c.405-1.447,1.099-2.635,2.085-3.562.984-.926,2.055-1.39,3.214-1.39,1.216,0,2.157.478,2.823,1.433.665.955,1.129,2.563,1.39,4.822.261,2.259.391,5.473.391,9.643v6.863Z"/>
  </g>
</svg>